<svg xmlns="http://www.w3.org/2000/svg" xmlns:xlink="http://www.w3.org/1999/xlink" viewBox="0 0 95.48099194503513 95.481" height="95.481" width="95.48099194503513" data-background-color="#ffffff" preserveAspectRatio="xMidYMid meet" id="tight-bounds"><g><svg viewBox="0 0 95.48099194503513 95.481" height="95.481" width="95.48099194503513"><g><svg viewBox="0 0 95.48099194503513 95.481" height="95.481" width="95.48099194503513"><g id="textblocktransform"><svg viewBox="0 0 95.48099194503513 95.481" height="95.481" width="95.48099194503513" id="textblock"><g><svg viewBox="0 0 95.48099194503513 95.481" height="95.481" width="95.48099194503513"><g><svg viewBox="0 0 95.48099194503513 95.481" height="95.481" width="95.48099194503513"><g><svg xmlns="http://www.w3.org/2000/svg" xmlns:xlink="http://www.w3.org/1999/xlink" version="1.1" x="0" y="0" viewBox="4.8817853927612305 4.781786918640137 90.43641662597656 90.4364242553711" style="enable-background:new 0 0 100 100;" xml:space="preserve" height="95.481" width="95.48099194503513" class="icon-icon-0" data-fill-palette-color="accent" id="icon-0"><path class="" d="M34.1 50c-2.4-0.2-5-1.7-5.9-4-0.2-1-0.4-2.8 0.8-3.4 0 0.8 0.4 1.7 1 2.2 1.3 1.3 3.8 1.5 5.1 0.1 1.5-1.5 1.5-4.3 0-5.9-0.8-0.8-2.1-1.4-3.7-1.4-2.4 0.3-4.2 3.2-5.5 5-0.8 1.3-1.6 2.4-2.5 3.3-3.5 3.5-7.5 3.7-11.1 1.4-3.1-3.1-4.9-6.9-2.1-11 1.9-2.9 6.6-4.4 9.4-2.1-1.8-0.2-3.7 0.2-4.9 1.4-1.8 1.8-1.9 5-0.1 6.8 1.8 1.8 4.3 1.7 6.1-0.1 2.7-2.7 2.6-6.7-0.1-9.3-1.6-1.6-4.3-2.4-9.5-1.4-0.3-1.3-1-2.6-2.1-3.7-4.6-4.9-5-11.5-2.9-17.7l1.2-3 3-1.2c6.2-2 12.7-1.7 17.7 2.9 1.1 1.1 2.4 1.8 3.7 2.1-1 5.1-0.2 7.9 1.4 9.5 2.6 2.6 6.7 2.7 9.3 0.1 1.8-1.8 2-4.3 0.1-6.1-1.8-1.8-5-1.7-6.8 0.1-1.2 1.2-1.6 3-1.4 4.9-2.3-2.8-0.8-7.5 2.1-9.4 4.1-2.8 7.9-1 11 2.1 2.3 3.5 2.1 7.6-1.4 11.1-0.9 0.9-2 1.7-3.3 2.5-1.8 1.3-4.7 3.1-5 5.5 0 1.6 0.6 2.9 1.4 3.7 1.6 1.6 4.4 1.5 5.9 0 1.4-1.4 1.2-3.8-0.1-5.1-0.5-0.5-1.4-1-2.2-1 0.6-1.1 2.4-1 3.4-0.8 2.3 0.9 3.7 3.5 4 5.9 0.2-2.4 1.7-5 4-5.9 1-0.2 2.8-0.4 3.4 0.8-0.8 0-1.7 0.4-2.2 1-1.3 1.3-1.5 3.8-0.1 5.1 1.5 1.5 4.3 1.5 5.9 0 0.8-0.8 1.4-2.1 1.4-3.7-0.3-2.4-3.2-4.2-5-5.5-1.3-0.8-2.4-1.6-3.3-2.5-3.5-3.5-3.7-7.5-1.4-11.1 3.1-3.1 6.9-4.9 11-2.1 2.9 1.9 4.4 6.6 2.1 9.4 0.2-1.8-0.2-3.7-1.4-4.9-1.8-1.8-5-1.9-6.8-0.1-1.8 1.8-1.7 4.3 0.1 6.1 2.7 2.7 6.7 2.6 9.3-0.1 1.6-1.6 2.4-4.3 1.4-9.5 1.3-0.3 2.6-1 3.7-2.1 4.9-4.6 11.5-5 17.7-2.9l3 1.2 1.2 3c2 6.2 1.7 12.7-2.9 17.7-1.1 1.1-1.8 2.4-2.1 3.7-5.1-1-7.9-0.2-9.5 1.4-2.6 2.6-2.7 6.7-0.1 9.3 1.8 1.8 4.3 2 6.1 0.1 1.8-1.8 1.7-5-0.1-6.8-1.2-1.2-3-1.6-4.9-1.4 2.8-2.3 7.5-0.8 9.4 2.1 2.8 4.1 1 7.9-2.1 11-3.5 2.3-7.6 2.1-11.1-1.4-0.9-0.9-1.7-2-2.5-3.3-1.3-1.8-3.1-4.7-5.5-5-1.6 0-2.9 0.6-3.7 1.4-1.6 1.6-1.5 4.4 0 5.9 1.4 1.4 3.8 1.2 5.1-0.1 0.5-0.5 1-1.4 1-2.2 1.1 0.6 1 2.4 0.8 3.4-0.9 2.3-3.5 3.7-5.9 4 2.4 0.2 5 1.7 5.9 4 0.2 1 0.4 2.8-0.8 3.4 0-0.8-0.4-1.7-1-2.2-1.3-1.3-3.8-1.5-5.1-0.1-1.5 1.5-1.5 4.3 0 5.9 0.8 0.8 2.1 1.4 3.7 1.4 2.4-0.3 4.2-3.2 5.5-5 0.8-1.3 1.6-2.4 2.5-3.3 3.5-3.5 7.5-3.7 11.1-1.4 3.1 3.1 4.9 6.9 2.1 11-1.9 2.9-6.6 4.4-9.4 2.1 1.8 0.2 3.7-0.2 4.9-1.4 1.8-1.8 1.9-5 0.1-6.8-1.8-1.8-4.3-1.7-6.1 0.1-2.7 2.7-2.6 6.7 0.1 9.3 1.6 1.6 4.3 2.4 9.5 1.4 0.3 1.3 1 2.6 2.1 3.7 4.6 4.9 5 11.5 2.9 17.7l-1.2 3-3 1.2c-6.2 2-12.7 1.7-17.7-2.9-1.1-1.1-2.4-1.8-3.7-2.1 1-5.1 0.2-7.9-1.4-9.5-2.6-2.6-6.7-2.7-9.3-0.1-1.8 1.8-2 4.3-0.1 6.1 1.8 1.8 5 1.7 6.8-0.1 1.2-1.2 1.6-3 1.4-4.9 2.3 2.8 0.8 7.5-2.1 9.4-4.1 2.8-7.9 1-11-2.1-2.3-3.5-2.1-7.6 1.4-11.1 0.9-0.9 2-1.7 3.3-2.5 1.8-1.3 4.7-3.1 5-5.5 0-1.6-0.6-2.9-1.4-3.7-1.6-1.6-4.4-1.5-5.9 0-1.4 1.4-1.2 3.8 0.1 5.1 0.5 0.5 1.4 1 2.2 1-0.6 1.1-2.4 1-3.4 0.8-2.3-0.9-3.7-3.5-4-5.9-0.2 2.4-1.7 5-4 5.9-1 0.2-2.8 0.4-3.4-0.8 0.8 0 1.7-0.4 2.2-1 1.3-1.3 1.5-3.8 0.1-5.1-1.5-1.5-4.3-1.5-5.9 0-0.8 0.8-1.4 2.1-1.4 3.7 0.3 2.4 3.2 4.2 5 5.5 1.3 0.8 2.4 1.6 3.3 2.5 3.5 3.5 3.7 7.5 1.4 11.1-3.1 3.1-6.9 4.9-11 2.1-2.9-1.9-4.4-6.6-2.1-9.4-0.2 1.8 0.2 3.7 1.4 4.9 1.8 1.8 5 1.9 6.8 0.1 1.8-1.8 1.7-4.3-0.1-6.1-2.7-2.7-6.7-2.6-9.3 0.1-1.6 1.6-2.4 4.3-1.4 9.5-1.3 0.3-2.6 1-3.7 2.1-4.9 4.6-11.5 5-17.7 2.9l-3-1.2-1.2-3c-2-6.2-1.7-12.7 2.9-17.7 1.1-1.1 1.8-2.4 2.1-3.7 5.1 1 7.9 0.2 9.5-1.4 2.6-2.6 2.7-6.7 0.1-9.3-1.8-1.8-4.3-2-6.1-0.1-1.8 1.8-1.7 5 0.1 6.8 1.2 1.2 3 1.6 4.9 1.4-2.8 2.3-7.5 0.8-9.4-2.1-2.8-4.1-1-7.9 2.1-11 3.5-2.3 7.6-2.1 11.1 1.4 0.9 0.9 1.7 2 2.5 3.3 1.3 1.8 3.1 4.7 5.5 5 1.6 0 2.9-0.6 3.7-1.4 1.6-1.6 1.5-4.4 0-5.9-1.4-1.4-3.8-1.2-5.1 0.1-0.5 0.5-1 1.4-1 2.2-1.1-0.6-1-2.4-0.8-3.4C29.1 51.7 31.7 50.2 34.1 50L34.1 50zM50 64.6c0.3-3.1 3.1-5.6 7.1-5.9 0.3 0 0.9-0.1 1.4-0.2 0.1-0.6 0.2-1.1 0.2-1.4 0.3-3.9 2.9-6.8 5.9-7.1-3.1-0.3-5.6-3.1-5.9-7.1 0-0.3-0.1-0.9-0.2-1.4-0.6-0.1-1.1-0.2-1.4-0.2-3.9-0.3-6.8-2.9-7.1-5.9-0.3 3.1-3.1 5.6-7.1 5.9-0.3 0-0.9 0.1-1.4 0.2-0.1 0.6-0.2 1.1-0.2 1.4-0.3 3.9-2.9 6.8-5.9 7.1 3.1 0.3 5.6 3.1 5.9 7.1 0 0.3 0.1 0.9 0.2 1.4 0.6 0.1 1.1 0.2 1.4 0.2C46.9 59 49.7 61.6 50 64.6L50 64.6zM9.5 90.5c4.9 0.7 9.5-0.5 12.9-3.9 1.1-1.1 2.1-2.4 2.9-4l0 0c-2.2-0.2-4.2-0.9-6-1.9-1-1.7-1.7-3.7-1.9-6l0 0c-1.6 0.8-2.9 1.8-4 2.9C10.1 80.9 8.8 85.6 9.5 90.5L9.5 90.5zM24 76c3 0.9 6.6 0.1 9.8-2.4l0 0c-2.8 0.9-5.2 0.8-7.2-0.1-0.9-2-1.1-4.4-0.1-7.2l0 0C23.9 69.5 23.1 73 24 76L24 76zM90.5 90.5c0.7-4.9-0.5-9.5-3.9-12.9-1.1-1.1-2.4-2.1-4-2.9l0 0c-0.2 2.2-0.9 4.2-1.9 6-1.7 1-3.7 1.7-6 1.9l0 0c0.8 1.6 1.8 2.9 2.9 4C80.9 89.9 85.6 91.2 90.5 90.5L90.5 90.5zM76 76c0.9-3 0.1-6.6-2.4-9.8l0 0c0.9 2.8 0.8 5.2-0.1 7.2-2 0.9-4.4 1.1-7.2 0.1l0 0C69.5 76.1 73 76.9 76 76L76 76zM90.5 9.5c-4.9-0.7-9.5 0.5-12.9 3.9-1.1 1.1-2.1 2.4-2.9 4l0 0c2.2 0.2 4.2 0.9 6 1.9 1 1.7 1.7 3.7 1.9 6l0 0c1.6-0.8 2.9-1.8 4-2.9C89.9 19.1 91.2 14.4 90.5 9.5L90.5 9.5zM76 24c-3-0.9-6.6-0.1-9.8 2.4l0 0c2.8-0.9 5.2-0.8 7.2 0.1 0.9 2 1.1 4.4 0.1 7.2l0 0C76.1 30.5 76.9 27 76 24L76 24zM9.5 9.5c-0.7 4.9 0.5 9.5 3.9 12.9 1.1 1.1 2.4 2.1 4 2.9l0 0c0.2-2.2 0.9-4.2 1.9-6 1.7-1 3.7-1.7 6-1.9l0 0c-0.8-1.6-1.8-2.9-2.9-4C19.1 10.1 14.4 8.8 9.5 9.5L9.5 9.5zM24 24c-0.9 3-0.1 6.6 2.4 9.8l0 0c-0.9-2.8-0.8-5.2 0.1-7.2 2-0.9 4.4-1.1 7.2-0.1l0 0C30.5 23.9 26.9 23.1 24 24z" fill-rule="evenodd" clip-rule="evenodd" fill="#ea3c12" data-fill-palette-color="accent"/></svg></g></svg></g></svg></g></svg></g></svg></g></svg></g><defs/></svg>