<?xml version="1.0" encoding="UTF-8"?>
<svg id="icon-0" xmlns="http://www.w3.org/2000/svg" viewBox="0 0 95.48 95.48">
  <defs>
    <style>
      .cls-1 {
        fill: #f48a42;
        fill-rule: evenodd;
      }
    </style>
  </defs>
  <g id="textblocktransform">
    <path class="cls-1" d="m30.85,47.74c-2.53-.21-5.28-1.79-6.23-4.22-.21-1.06-.42-2.96.84-3.59,0,.84.42,1.79,1.06,2.32,1.37,1.37,4.01,1.58,5.38.11,1.58-1.58,1.58-4.54,0-6.23-.84-.84-2.22-1.48-3.91-1.48-2.53.32-4.43,3.38-5.81,5.28-.84,1.37-1.69,2.53-2.64,3.48-3.7,3.7-7.92,3.91-11.72,1.48-3.27-3.27-5.17-7.28-2.22-11.61,2.01-3.06,6.97-4.65,9.92-2.22-1.9-.21-3.91.21-5.17,1.48-1.9,1.9-2.01,5.28-.11,7.18s4.54,1.79,6.44-.11c2.85-2.85,2.75-7.07-.11-9.82-1.69-1.69-4.54-2.53-10.03-1.48-.32-1.37-1.06-2.75-2.22-3.91C-.51,19.23-.93,12.27,1.29,5.72l1.27-3.17,3.17-1.27c6.55-2.11,13.41-1.79,18.69,3.06,1.16,1.16,2.53,1.9,3.91,2.22-1.06,5.38-.21,8.34,1.48,10.03,2.75,2.75,7.07,2.85,9.82.11,1.9-1.9,2.11-4.54.11-6.44-1.9-1.9-5.28-1.79-7.18.11-1.27,1.27-1.69,3.17-1.48,5.17-2.43-2.96-.84-7.92,2.22-9.92,4.33-2.96,8.34-1.06,11.61,2.22,2.43,3.7,2.22,8.02-1.48,11.72-.95.95-2.11,1.79-3.48,2.64-1.9,1.37-4.96,3.27-5.28,5.81,0,1.69.63,3.06,1.48,3.91,1.69,1.69,4.65,1.58,6.23,0,1.48-1.48,1.27-4.01-.11-5.38-.53-.53-1.48-1.06-2.32-1.06.63-1.16,2.53-1.06,3.59-.84,2.43.95,3.91,3.7,4.22,6.23.21-2.53,1.79-5.28,4.22-6.23,1.06-.21,2.96-.42,3.59.84-.84,0-1.79.42-2.32,1.06-1.37,1.37-1.58,4.01-.11,5.38,1.58,1.58,4.54,1.58,6.23,0,.84-.84,1.48-2.22,1.48-3.91-.32-2.53-3.38-4.43-5.28-5.81-1.37-.84-2.53-1.69-3.48-2.64-3.7-3.7-3.91-7.92-1.48-11.72,3.27-3.27,7.28-5.17,11.61-2.22,3.06,2.01,4.65,6.97,2.22,9.92.21-1.9-.21-3.91-1.48-5.17-1.9-1.9-5.28-2.01-7.18-.11s-1.79,4.54.11,6.44c2.85,2.85,7.07,2.75,9.82-.11,1.69-1.69,2.53-4.54,1.48-10.03,1.37-.32,2.75-1.06,3.91-2.22,5.17-4.86,12.14-5.28,18.69-3.06l3.17,1.27,1.27,3.17c2.11,6.55,1.79,13.41-3.06,18.69-1.16,1.16-1.9,2.53-2.22,3.91-5.38-1.06-8.34-.21-10.03,1.48-2.75,2.75-2.85,7.07-.11,9.82,1.9,1.9,4.54,2.11,6.44.11,1.9-1.9,1.79-5.28-.11-7.18-1.27-1.27-3.17-1.69-5.17-1.48,2.96-2.43,7.92-.84,9.92,2.22,2.96,4.33,1.06,8.34-2.22,11.61-3.7,2.43-8.02,2.22-11.72-1.48-.95-.95-1.79-2.11-2.64-3.48-1.37-1.9-3.27-4.96-5.81-5.28-1.69,0-3.06.63-3.91,1.48-1.69,1.69-1.58,4.65,0,6.23,1.48,1.48,4.01,1.27,5.38-.11.53-.53,1.06-1.48,1.06-2.32,1.16.63,1.06,2.53.84,3.59-.95,2.43-3.7,3.91-6.23,4.22,2.53.21,5.28,1.79,6.23,4.22.21,1.06.42,2.96-.84,3.59,0-.84-.42-1.79-1.06-2.32-1.37-1.37-4.01-1.58-5.38-.11-1.58,1.58-1.58,4.54,0,6.23.84.84,2.22,1.48,3.91,1.48,2.53-.32,4.43-3.38,5.81-5.28.84-1.37,1.69-2.53,2.64-3.48,3.7-3.7,7.92-3.91,11.72-1.48,3.27,3.27,5.17,7.28,2.22,11.61-2.01,3.06-6.97,4.65-9.92,2.22,1.9.21,3.91-.21,5.17-1.48,1.9-1.9,2.01-5.28.11-7.18s-4.54-1.79-6.44.11c-2.85,2.85-2.75,7.07.11,9.82,1.69,1.69,4.54,2.53,10.03,1.48.32,1.37,1.06,2.75,2.22,3.91,4.86,5.17,5.28,12.14,3.06,18.69l-1.27,3.17-3.17,1.27c-6.55,2.11-13.41,1.79-18.69-3.06-1.16-1.16-2.53-1.9-3.91-2.22,1.06-5.38.21-8.34-1.48-10.03-2.75-2.75-7.07-2.85-9.82-.11-1.9,1.9-2.11,4.54-.11,6.44,1.9,1.9,5.28,1.79,7.18-.11,1.27-1.27,1.69-3.17,1.48-5.17,2.43,2.96.84,7.92-2.22,9.92-4.33,2.96-8.34,1.06-11.61-2.22-2.43-3.7-2.22-8.02,1.48-11.72.95-.95,2.11-1.79,3.48-2.64,1.9-1.37,4.96-3.27,5.28-5.81,0-1.69-.63-3.06-1.48-3.91-1.69-1.69-4.65-1.58-6.23,0-1.48,1.48-1.27,4.01.11,5.38.53.53,1.48,1.06,2.32,1.06-.63,1.16-2.53,1.06-3.59.84-2.43-.95-3.91-3.7-4.22-6.23-.21,2.53-1.79,5.28-4.22,6.23-1.06.21-2.96.42-3.59-.84.84,0,1.79-.42,2.32-1.06,1.37-1.37,1.58-4.01.11-5.38-1.58-1.58-4.54-1.58-6.23,0-.84.84-1.48,2.22-1.48,3.91.32,2.53,3.38,4.43,5.28,5.81,1.37.84,2.53,1.69,3.48,2.64,3.7,3.7,3.91,7.92,1.48,11.72-3.27,3.27-7.28,5.17-11.61,2.22-3.06-2.01-4.65-6.97-2.22-9.92-.21,1.9.21,3.91,1.48,5.17,1.9,1.9,5.28,2.01,7.18.11s1.79-4.54-.11-6.44c-2.85-2.85-7.07-2.75-9.82.11-1.69,1.69-2.53,4.54-1.48,10.03-1.37.32-2.75,1.06-3.91,2.22-5.17,4.86-12.14,5.28-18.69,3.06l-3.17-1.27-1.27-3.17c-2.11-6.55-1.79-13.41,3.06-18.69,1.16-1.16,1.9-2.53,2.22-3.91,5.38,1.06,8.34.21,10.03-1.48,2.75-2.75,2.85-7.07.11-9.82-1.9-1.9-4.54-2.11-6.44-.11-1.9,1.9-1.79,5.28.11,7.18,1.27,1.27,3.17,1.69,5.17,1.48-2.96,2.43-7.92.84-9.92-2.22-2.96-4.33-1.06-8.34,2.22-11.61,3.7-2.43,8.02-2.22,11.72,1.48.95.95,1.79,2.11,2.64,3.48,1.37,1.9,3.27,4.96,5.81,5.28,1.69,0,3.06-.63,3.91-1.48,1.69-1.69,1.58-4.65,0-6.23-1.48-1.48-4.01-1.27-5.38.11-.53.53-1.06,1.48-1.06,2.32-1.16-.63-1.06-2.53-.84-3.59.95-2.43,3.7-4.01,6.23-4.22h0Zm16.79,15.41c.32-3.27,3.27-5.91,7.5-6.23.32,0,.95-.11,1.48-.21.11-.63.21-1.16.21-1.48.32-4.12,3.06-7.18,6.23-7.5-3.27-.32-5.91-3.27-6.23-7.5,0-.32-.11-.95-.21-1.48-.63-.11-1.16-.21-1.48-.21-4.12-.32-7.18-3.06-7.5-6.23-.32,3.27-3.27,5.91-7.5,6.23-.32,0-.95.11-1.48.21-.11.63-.21,1.16-.21,1.48-.32,4.12-3.06,7.18-6.23,7.5,3.27.32,5.91,3.27,6.23,7.5,0,.32.11.95.21,1.48.63.11,1.16.21,1.48.21,4.22.32,7.18,3.06,7.5,6.23h0ZM4.88,90.5c5.17.74,10.03-.53,13.62-4.12,1.16-1.16,2.22-2.53,3.06-4.22h0c-2.32-.21-4.43-.95-6.33-2.01-1.06-1.79-1.79-3.91-2.01-6.33h0c-1.69.84-3.06,1.9-4.22,3.06-3.48,3.48-4.86,8.45-4.12,13.62h0Zm15.31-15.31c3.17.95,6.97.11,10.35-2.53h0c-2.96.95-5.49.84-7.6-.11-.95-2.11-1.16-4.65-.11-7.6h0c-2.75,3.38-3.59,7.07-2.64,10.24h0Zm70.21,15.31c.74-5.17-.53-10.03-4.12-13.62-1.16-1.16-2.53-2.22-4.22-3.06h0c-.21,2.32-.95,4.43-2.01,6.33-1.79,1.06-3.91,1.79-6.33,2.01h0c.84,1.69,1.9,3.06,3.06,4.22,3.48,3.48,8.45,4.86,13.62,4.12h0Zm-15.31-15.31c.95-3.17.11-6.97-2.53-10.35h0c.95,2.96.84,5.49-.11,7.6-2.11.95-4.65,1.16-7.6.11h0c3.38,2.75,7.07,3.59,10.24,2.64h0ZM90.39,4.98c-5.17-.74-10.03.53-13.62,4.12-1.16,1.16-2.22,2.53-3.06,4.22h0c2.32.21,4.43.95,6.33,2.01,1.06,1.79,1.79,3.91,2.01,6.33h0c1.69-.84,3.06-1.9,4.22-3.06,3.48-3.48,4.86-8.45,4.12-13.62h0Zm-15.31,15.31c-3.17-.95-6.97-.11-10.35,2.53h0c2.96-.95,5.49-.84,7.6.11.95,2.11,1.16,4.65.11,7.6h0c2.75-3.38,3.59-7.07,2.64-10.24h0ZM4.88,4.98c-.74,5.17.53,10.03,4.12,13.62,1.16,1.16,2.53,2.22,4.22,3.06h0c.21-2.32.95-4.43,2.01-6.33,1.79-1.06,3.91-1.79,6.33-2.01h0c-.84-1.69-1.9-3.06-3.06-4.22-3.48-3.48-8.45-4.86-13.62-4.12h0Zm15.31,15.31c-.95,3.17-.11,6.97,2.53,10.35h0c-.95-2.96-.84-5.49.11-7.6,2.11-.95,4.65-1.16,7.6-.11h0c-3.38-2.75-7.18-3.59-10.24-2.64Z"/>
  </g>
</svg>